<?xml version="1.0" encoding="UTF-8" standalone="no"?> <svg id="Layer_1" data-name="Layer 1" xmlns="http://www.w3.org/2000/svg" viewBox="0 0 64 64"><rect x="3" y="50" width="2" height="2"/><rect x="11" y="52" width="2" height="2"/><rect x="4" y="58" width="2" height="2"/><rect x="34" y="58" width="2" height="2"/><rect x="40" y="50" width="2" height="2"/><rect x="49" y="55" width="2" height="2"/><rect x="60" y="59" width="2" height="2"/><rect x="58" y="51" width="2" height="2"/><circle cx="24.548" cy="28.645" r="3.387"/><path d="M19.71,37.839v9.677L18.742,63h3.387l2.419-15.484L26.968,63h3.387l-.968-15.484V36.871L41,31.065l-2.9-1.936-7.816,2.605a5.787,5.787,0,0,1-1.836.3H21.363a5.807,5.807,0,0,0-5.194,3.21L11,45.581h3.387Z"/><path d="M42.661,18.89a3.526,3.526,0,0,0-.357,1.181,4.4,4.4,0,0,0,1.55,3.619,2.194,2.194,0,0,1,.851,1.755A2.808,2.808,0,0,1,43.311,27.1l.935,1.767a4.758,4.758,0,0,0,2.436-3.117,4.025,4.025,0,0,0-1.414-3.473,2.577,2.577,0,0,1-.979-1.967,2.242,2.242,0,0,1,.911-1.4,9,9,0,1,0-2.539-.021ZM46.5,6h2V8h-2Zm-7,0h2V8h-2ZM41,11a3,3,0,0,0,6,0h2a5,5,0,0,1-10,0Z"/></svg>